<?xml version="1.0" encoding="UTF-8"?>
<svg id="_레이어_2" data-name="레이어 2" xmlns="http://www.w3.org/2000/svg" viewBox="0 0 91.16 40.22">
  <defs>
    <style>
      .cls-1 {
        fill: #0033da;
      }
    </style>
  </defs>
  <g id="_레이어_1-2" data-name="레이어 1">
    <path class="cls-1" d="M17.09,26.13c-.83-2.22-1.03-4.64-.82-7.19,1.16.43,1.62,1.12,1.87,1.59.38.71.38,1.53.38,2.51,0,.71.38,1.09,1.04,1.09l4.7.16c.71,0,1.09-.38,1.15-1.04.05-.44.05-.77.05-1.04,0-4.66-2.06-8.89-7.14-10.37,1.86-2.35,5.03-3.68,8.08-3.68h17.23V0s-10.85.05-18.76.05-13.32,5.82-15.16,11.19c0,.02,0,.04-.02.07H0v7.27h8.45c-.28,3.68.06,7.17,1.26,10.41,1.84,5.37,7.25,11.19,15.16,11.19s18.76.05,18.76.05v-8.18h-17.23c-3.91,0-8.03-2.18-9.31-5.91Z"/>
    <rect class="cls-1" x="28.62" y="16.17" width="35.55" height="7.88"/>
    <path class="cls-1" d="M83.1,11.31s-.01-.04-.02-.07C81.24,5.88,75.83.05,67.92.05s-18.76-.05-18.76-.05v8.18h17.23c3,0,6.12,1.29,7.99,3.57-5.4,1.35-7.58,5.69-7.58,10.48,0,.27,0,.6.05,1.04.05.66.44,1.04,1.15,1.04l4.7-.16c.66,0,1.04-.38,1.04-1.09,0-.98,0-1.8.38-2.51.29-.54.84-1.39,2.46-1.77.08,2.34-.26,4.81-.88,7.37-1.28,3.73-5.4,5.91-9.31,5.91h-17.23v8.18s10.85-.05,18.76-.05,13.32-5.82,15.16-11.19c.93-3.61,1.41-7.1,1.33-10.41h6.75v-7.27h-8.06Z"/>
  </g>
</svg>