<?xml version="1.0" encoding="UTF-8"?>
<svg id="_레이어_2" data-name="레이어 2" xmlns="http://www.w3.org/2000/svg" viewBox="0 0 95.86 131.46">
  <defs>
    <style>
      .cls-1 {
        fill: #0033da;
      }

      .cls-2 {
        fill: #fff;
      }
    </style>
  </defs>
  <g id="_레이어_1-2" data-name="레이어 1">
    <g>
      <g>
        <path class="cls-2" d="M84.21,46.31c.36-8.04-.28-24.35-9.87-35.38C68.05,3.68,59.16,0,47.93,0s-20.12,3.68-26.42,10.93c-9.59,11.04-10.23,27.34-9.87,35.38C4.89,48.56,0,54.93,0,62.43v52.02c0,9.37,7.63,17,17,17h61.86c9.37,0,17-7.63,17-17v-52.02c0-7.5-4.89-13.87-11.65-16.12ZM29.08,17.46c4.38-5.02,10.54-7.46,18.85-7.46s14.47,2.44,18.85,7.46c7.14,8.19,7.7,21.25,7.45,27.97H21.63c-.25-6.72.32-19.78,7.45-27.97ZM85.86,114.46c0,3.86-3.14,7-7,7H17c-3.86,0-7-3.14-7-7v-52.02c0-3.86,3.14-7,7-7h61.86c3.86,0,7,3.14,7,7v52.02Z"/>
        <path class="cls-2" d="M57.51,83.25c0-5.29-4.29-9.58-9.58-9.58s-9.58,4.29-9.58,9.58c0,3.31,1.68,6.23,4.24,7.95v12.56c0,2.15,1.76,3.9,3.9,3.9h2.87c2.15,0,3.9-1.76,3.9-3.9v-12.56c2.56-1.72,4.24-4.64,4.24-7.95Z"/>
      </g>
      <g>
        <path class="cls-1" d="M84.21,46.31c.36-8.04-.28-24.35-9.87-35.38C68.05,3.68,59.16,0,47.93,0s-20.12,3.68-26.42,10.93c-9.59,11.04-10.23,27.34-9.87,35.38C4.89,48.56,0,54.93,0,62.43v52.02c0,9.37,7.63,17,17,17h61.86c9.37,0,17-7.63,17-17v-52.02c0-7.5-4.89-13.87-11.65-16.12ZM29.08,17.46c4.38-5.02,10.54-7.46,18.85-7.46s14.47,2.44,18.85,7.46c7.14,8.19,7.7,21.25,7.45,27.97H21.63c-.25-6.72.32-19.78,7.45-27.97ZM85.86,114.46c0,3.86-3.14,7-7,7H17c-3.86,0-7-3.14-7-7v-52.02c0-3.86,3.14-7,7-7h61.86c3.86,0,7,3.14,7,7v52.02Z"/>
        <path class="cls-1" d="M57.51,83.25c0-5.29-4.29-9.58-9.58-9.58s-9.58,4.29-9.58,9.58c0,3.31,1.68,6.23,4.24,7.95v12.56c0,2.15,1.76,3.9,3.9,3.9h2.87c2.15,0,3.9-1.76,3.9-3.9v-12.56c2.56-1.72,4.24-4.64,4.24-7.95Z"/>
      </g>
    </g>
  </g>
</svg>