<?xml version="1.0" encoding="UTF-8"?>
<svg id="_레이어_2" data-name="레이어 2" xmlns="http://www.w3.org/2000/svg" viewBox="0 0 243.7 48">
  <defs>
    <style>
      .cls-1 {
        fill: #fff;
      }
    </style>
  </defs>
  <g id="_레이어_1-2" data-name="레이어 1">
    <g>
      <path class="cls-1" d="M23.8,31.2c0,1.53-.31,2.88-.92,4.02-.62,1.15-1.48,2.04-2.58,2.67-1.1.63-2.35.95-3.75.95s-2.65-.33-3.75-.97c-1.1-.65-1.96-1.58-2.58-2.78-.62-1.2-.92-2.6-.92-4.2V1.5H0v29.85c0,3.37.71,6.26,2.12,8.67,1.42,2.42,3.36,4.28,5.82,5.58s5.28,1.95,8.45,1.95,6.08-.65,8.53-1.95,4.38-3.17,5.77-5.62c1.4-2.45,2.1-5.38,2.1-8.77V1.5h-9v29.7Z"/>
      <polygon class="cls-1" points="68.2 26.9 41.3 0 41.2 0 41.2 46.5 49.6 46.5 49.6 21.05 76.5 48 76.6 48 76.6 1.5 68.2 1.5 68.2 26.9"/>
      <polygon class="cls-1" points="95.5 1.5 86.2 1.5 86.2 46.5 109 46.5 109 38.4 95.5 38.4 95.5 1.5"/>
      <path class="cls-1" d="M181.02,10.45c1.75-.77,3.64-1.15,5.67-1.15,2.83,0,5.33.71,7.5,2.12,2.17,1.42,3.87,3.16,5.1,5.22l2.55-10.5c-2.07-1.77-4.42-3.13-7.05-4.1s-5.43-1.45-8.4-1.45c-3.3,0-6.38.61-9.25,1.83-2.87,1.22-5.39,2.89-7.58,5.03-1.98,1.93-3.54,4.17-4.74,6.67h-9.87c-1.2-2.51-2.77-4.74-4.74-6.67-2.18-2.13-4.71-3.81-7.58-5.03-2.87-1.22-5.95-1.83-9.25-1.83s-6.38.61-9.25,1.83c-2.87,1.22-5.39,2.89-7.58,5.03s-3.89,4.62-5.12,7.45c-1.23,2.83-1.85,5.87-1.85,9.1s.62,6.27,1.85,9.1c1.23,2.83,2.94,5.32,5.12,7.45,2.18,2.13,4.71,3.81,7.58,5.03,2.87,1.22,5.95,1.82,9.25,1.82s6.38-.61,9.25-1.82c2.87-1.22,5.39-2.89,7.58-5.03.92-.9,1.74-1.87,2.49-2.9h14.37c.75,1.02,1.57,2,2.49,2.9,2.18,2.13,4.71,3.81,7.58,5.03,2.87,1.22,5.95,1.82,9.25,1.82,2.97,0,5.76-.49,8.38-1.47,2.62-.98,4.97-2.34,7.08-4.08l-2.55-10.5c-1.23,2.07-2.94,3.81-5.12,5.23s-4.67,2.12-7.47,2.12c-2.03,0-3.92-.38-5.67-1.15-.5-.22-.97-.46-1.43-.73,4.36-1.73,7.45-5.97,7.45-10.94,0-6.26-4.92-11.38-11.09-11.73.16-.19.32-.38.49-.56,1.3-1.33,2.83-2.38,4.58-3.15ZM147.8,24c0,2.03-.37,3.94-1.1,5.72-.13.32-.28.62-.43.93h-1.6c-2.63,0-4.77-2.14-4.77-4.77s2.14-4.77,4.77-4.77h2.87c.17.93.26,1.89.26,2.88ZM139.05,37.55c-1.73.77-3.62,1.15-5.65,1.15s-3.92-.38-5.65-1.15c-1.73-.77-3.26-1.82-4.58-3.15-1.32-1.33-2.34-2.89-3.08-4.67-.73-1.78-1.1-3.69-1.1-5.72s.37-3.94,1.1-5.73c.73-1.78,1.76-3.34,3.08-4.67,1.32-1.33,2.84-2.38,4.58-3.15,1.73-.77,3.62-1.15,5.65-1.15s3.92.38,5.65,1.15c1.73.77,3.26,1.82,4.58,3.15.17.18.33.37.49.55-6.23.29-11.22,5.43-11.22,11.74,0,4.99,3.13,9.26,7.53,10.96-.44.25-.9.49-1.37.7ZM156.24,30.65c.64-2.12.96-4.33.96-6.65,0-.98-.06-1.94-.18-2.88h5.75c-.11.94-.18,1.9-.18,2.88,0,2.32.32,4.54.96,6.65h-7.32ZM180.04,25.89c0,2.63-2.14,4.77-4.76,4.77h-1.45c-.15-.31-.3-.61-.43-.93-.73-1.78-1.1-3.69-1.1-5.72,0-.99.09-1.95.26-2.88h2.72c2.63,0,4.76,2.14,4.76,4.77Z"/>
      <polygon class="cls-1" points="227 18.6 239.5 1.5 229.2 1.5 217.2 18.13 217.2 1.5 208.2 1.5 208.2 46.5 217.2 46.5 217.2 19.51 233.15 46.5 243.7 46.5 227 18.6"/>
    </g>
  </g>
</svg>