<svg width="194" height="89" viewBox="0 0 194 89" fill="none" xmlns="http://www.w3.org/2000/svg">
<path fill-rule="evenodd" clip-rule="evenodd" d="M108.152 1.8116C111.41 -0.185543 115.477 -0.531686 120.353 0.774493C125.228 2.08078 128.566 4.41036 130.366 7.76277C132.189 11.1215 132.408 15.3878 131.021 20.5606L124.818 43.7081L131.146 32.7511C134.179 27.4976 137.538 24.0729 141.222 22.4786C144.926 20.8964 149.128 21.4619 153.827 24.1749C156.392 25.6559 158.398 27.443 159.844 29.5362C160.755 30.8452 161.394 32.2411 161.762 33.7227V13.4639H174.131V38.5225L179.96 13.4639H192.543L185.54 42.1124L194 76.0216H181.026L174.202 45.7384V76.0216H161.762V39.8057C161.384 41.3487 160.721 42.9461 159.768 44.5968L154.365 53.9542L143.591 47.7345L148.212 39.7305C149.148 38.1095 149.57 36.9034 149.479 36.1124C149.401 35.3009 148.931 34.6461 148.069 34.1485C147.064 33.568 146.173 33.5467 145.397 34.0841C144.634 34.6009 143.903 35.4645 143.204 36.6749L127.547 63.794C126.682 65.292 126.287 66.4735 126.362 67.338C126.458 68.2143 126.917 68.8894 127.738 69.3634C128.662 69.8963 129.527 69.8898 130.335 69.3438C131.163 68.8096 131.927 67.9373 132.626 66.7266L138.26 56.9688L149.156 63.2598L143.238 73.5108C140.49 78.2717 137.292 81.0362 133.647 81.8048C130.014 82.5528 126.043 81.6825 121.733 79.1944C117.814 76.9314 115.358 73.8859 114.367 70.0577C113.686 67.3793 113.869 64.5594 114.915 61.5977C111.824 63.2097 108.141 63.4452 103.867 62.2999C101.402 61.6394 99.3348 60.6777 97.6631 59.418V67.6807H72.9424L76.4346 80.7149L64.624 83.88L50.4854 55.2862L58.5811 85.4991L46.7705 88.6632L30.5801 28.2374L43.0078 24.9073L56.3252 52.3595L48.5703 23.4171L60.2432 20.2891L72.2852 65.2286V5.12313H84.7959V57.0177H95.2256C94.7365 56.3817 94.3094 55.699 93.9463 54.9679C92.1907 51.3573 92.0522 46.7936 93.5303 41.2774L101.221 12.5753C102.607 7.40278 104.917 3.81498 108.152 1.8116ZM12.1562 58.4044C12.1563 59.4469 12.2155 60.4544 12.334 61.4259C12.4525 62.3735 12.7249 63.1556 13.1514 63.7716C13.5779 64.3875 14.2652 64.6954 15.2129 64.6954C16.1844 64.6954 16.883 64.399 17.3096 63.8067C17.736 63.1907 17.997 62.3972 18.0918 61.4259C18.2103 60.4544 18.2695 59.4469 18.2695 58.4044V13.085H30.4258V58.9014C30.4258 64.5884 29.1938 68.9016 26.7295 71.8399C24.2651 74.7545 20.426 76.212 15.2129 76.212C9.99975 76.212 6.16068 74.7545 3.69629 71.8399C1.23194 68.9016 0 64.5885 0 58.9014V13.085H12.1562V58.4044ZM117.544 11.9444C115.53 11.4048 114.115 12.6572 113.299 15.7013L105.406 45.1593C104.903 47.0361 104.77 48.448 105.007 49.3946C105.25 50.3183 105.898 50.9211 106.951 51.2032C108.782 51.6938 110.173 50.165 111.124 46.6173L119.026 17.1261C119.824 14.1505 119.329 12.4228 117.544 11.9444Z" fill="#0033DA"/>
</svg>
